<svg xmlns="http://www.w3.org/2000/svg" width="67.856" height="56.547" viewBox="0 0 67.856 56.547">
  <path id="_001-scooter" data-name="001-scooter" d="M58.038,36.759,47.953,2.038A2.827,2.827,0,0,0,45.237,0H36.755a2.827,2.827,0,1,0,0,5.655h6.359L49.306,26.97,38.07,43.824H19.791V38.169A11.322,11.322,0,0,0,8.482,26.86H2.827a2.827,2.827,0,1,0,0,5.655H8.482A5.643,5.643,0,0,1,14.09,37.7a9.889,9.889,0,1,0,5.285,11.777H39.583a2.825,2.825,0,0,0,2.352-1.26l9.433-14.149,1.241,4.271a9.884,9.884,0,1,0,5.429-1.581ZM9.9,50.892a4.241,4.241,0,1,1,4.241-4.241A4.247,4.247,0,0,1,9.9,50.892Zm48.065,0A4.241,4.241,0,1,1,62.2,46.651,4.247,4.247,0,0,1,57.96,50.892Zm0,0" fill="#682666"/>
</svg>
