<svg xmlns="http://www.w3.org/2000/svg" width="89.383" height="57.439" viewBox="0 0 89.383 57.439">
  <path id="_002-bycicle" data-name="002-bycicle" d="M68.9,114.908,62.609,97.174h9.556a1.113,1.113,0,0,1,1.112,1.112v1.72a1.113,1.113,0,0,1-1.112,1.112,2.79,2.79,0,1,0,0,5.58,6.7,6.7,0,0,0,6.692-6.692v-1.72a6.7,6.7,0,0,0-6.692-6.692H58.658a2.791,2.791,0,0,0-2.629,3.723l2.61,7.354H36.813l-1.951-5.5h2.8a2.79,2.79,0,1,0,0-5.58H30.911a2.791,2.791,0,0,0-2.629,3.723l3.529,9.945-7.246,10.982a17.217,17.217,0,1,0,9.529,18.992H44.418a2.79,2.79,0,0,0,2.329-1.253L61.7,111.312l1.963,5.531a17.208,17.208,0,1,0,5.234-1.936Zm-34.752-3.057,6.318,17.806H34.3a17.186,17.186,0,0,0-5.146-10.238ZM26,124.2a11.6,11.6,0,0,1,2.648,5.461H22.4Zm-8.786,19.257a11.637,11.637,0,1,1,4.227-22.479l-6.555,9.936a2.792,2.792,0,0,0,2.329,4.327H28.343A11.659,11.659,0,0,1,17.219,143.453Zm27.956-17.218-6.382-17.984H57.039Zm26.99,17.218a11.634,11.634,0,0,1-6.587-21.226l3.958,11.153a2.79,2.79,0,1,0,5.259-1.866L70.8,120.259a11.637,11.637,0,1,1,1.364,23.194Z" transform="translate(0 -91.594)" fill="#682666"/>
</svg>
