<svg xmlns="http://www.w3.org/2000/svg" width="89.151" height="62.295" viewBox="0 0 89.151 62.295">
  <path id="_003-transportation" data-name="003-transportation" d="M72.552,106.214c-.384,0-.764.014-1.141.04l-1.386-6.006H72.34a8.207,8.207,0,1,0,0-16.414h-6.32c-1.705-3.9-5.342-6.714-9.006-6.714h-5.6a2.612,2.612,0,1,0,0,5.224h5.6c1.661,0,3.99,2.049,4.623,4.79l1.175,5.093H47.956c-4.827,0-10.154,3.092-12.128,7.039l-1.2,2.4a27.829,27.829,0,0,0-4.7-3.233v-5.2a9.516,9.516,0,0,0-9.606-9.4H11.931a9.617,9.617,0,0,0-9.606,9.606V98.97c-.393.236-.783.478-1.166.734a2.612,2.612,0,1,0,2.906,4.341,22.537,22.537,0,0,1,2.1-1.245l.035-.019a22.578,22.578,0,0,1,26.994,4.741l5.432,10.864a2.612,2.612,0,0,0,2.336,1.444H52.818L47.385,125.8H32.931a16.621,16.621,0,1,0-1.906,5.224H48.539a2.612,2.612,0,0,0,1.931-.853L56,124.093a16.6,16.6,0,1,0,16.551-17.879Zm-65-9.683V93.439a4.387,4.387,0,0,1,4.382-4.383h8.392a4.289,4.289,0,0,1,4.382,4.178v3a27.808,27.808,0,0,0-17.157.294ZM16.6,134.19a11.39,11.39,0,1,1,11.191-9.343L17.645,120.42a2.612,2.612,0,1,0-2.089,4.788L25.7,129.634A11.366,11.366,0,0,1,16.6,134.19ZM75.324,92.04a2.987,2.987,0,0,1-2.984,2.984H68.819l-1.377-5.967h4.9A2.987,2.987,0,0,1,75.324,92.04ZM47.956,97.45H64.018l1.377,5.967h-25.8L40.5,101.6C41.606,99.39,45.09,97.45,47.956,97.45Zm-5.38,17.157-2.983-5.967H63.92a16.726,16.726,0,0,0-3.471,2.826c-.051.048-.1.1-.15.149l-2.724,2.992h-15ZM72.552,134.19a11.374,11.374,0,0,1-5.034-21.574L70.007,123.4a2.612,2.612,0,0,0,5.09-1.175l-2.489-10.787a11.376,11.376,0,0,1-.056,22.751Z" transform="translate(0 -77.119)" fill="#682666"/>
</svg>
