<svg id="Grupo_35" data-name="Grupo 35" xmlns="http://www.w3.org/2000/svg" width="63.412" height="63.525" viewBox="0 0 63.412 63.525">
  <path id="Trazado_65" data-name="Trazado 65" d="M1388.807,549.468a7.721,7.721,0,0,0,9.132-2.737l4.945-7.015a8.25,8.25,0,0,0,.645-8.495,38.01,38.01,0,0,0-13.461-15.414,31.475,31.475,0,0,0-16.8-4.816h0c-13.114,0-26.081,7.84-31.532,19.067a7.312,7.312,0,0,0-.286,5.677,7.388,7.388,0,0,0,3.927,4.192l14.99,6.64a11.418,11.418,0,0,0,3.239.895l4.759,11.731a2.354,2.354,0,0,1,.063,1.591l-3.219,10.223a1.8,1.8,0,0,0,1.073,2.217l3.11,1.184a1.671,1.671,0,0,0,2.164-.986l4.2-11.456a3.866,3.866,0,0,1,.888-1.394l11.356-11.422Zm-41.752-16.823c4.335-8.927,15.1-15.733,26.208-15.731,9.277,0,18.792,4.751,24.982,16.982a2.35,2.35,0,0,1-.2,2.408l-4.945,7.015a1.8,1.8,0,0,1-2.125.637l-.837-.329-7.749-3.044a3.056,3.056,0,0,0-1.118-.212c-.08,0-.161,0-.241.01l-11.145.881-1.764.14-2.668.211c-.146.012-.292.018-.438.018a5.579,5.579,0,0,1-2.257-.477l-14.989-6.64A1.388,1.388,0,0,1,1347.054,532.645Zm26.81,22.786-3.388-8.276,10.36-.819,1.253.493Z" transform="translate(-1341 -510.991)" fill="#682666"/>
</svg>
